<mxfile host="app.diagrams.net" modified="2023-01-28T14:41:16.495Z" agent="5.0 (Windows NT 10.0; Win64; x64) AppleWebKit/537.36 (KHTML, like Gecko) Chrome/109.0.0.0 Safari/537.36 Edg/109.0.1518.69" etag="K0M0nuBoEqTANfnu5edq" version="20.8.13" type="github">
  <diagram id="sAFR3K0FHI-QMzSaqLU8" name="Page-1">
    <mxGraphModel dx="1793" dy="955" grid="1" gridSize="10" guides="1" tooltips="1" connect="1" arrows="1" fold="1" page="1" pageScale="1" pageWidth="827" pageHeight="1169" math="0" shadow="0">
      <root>
        <mxCell id="0" />
        <mxCell id="1" parent="0" />
        <mxCell id="JPDFNG_8sJOL_J7qTDZQ-5" value="Modbus" style="edgeStyle=orthogonalEdgeStyle;rounded=0;orthogonalLoop=1;jettySize=auto;html=1;exitX=0.5;exitY=1;exitDx=0;exitDy=0;entryX=0.5;entryY=0;entryDx=0;entryDy=0;" parent="1" source="JPDFNG_8sJOL_J7qTDZQ-1" target="JPDFNG_8sJOL_J7qTDZQ-2" edge="1">
          <mxGeometry relative="1" as="geometry" />
        </mxCell>
        <mxCell id="JPDFNG_8sJOL_J7qTDZQ-1" value="Régulateur&lt;br&gt;(Vitesse ventilateur)" style="rounded=0;whiteSpace=wrap;html=1;" parent="1" vertex="1">
          <mxGeometry x="320" y="190" width="130" height="60" as="geometry" />
        </mxCell>
        <mxCell id="JPDFNG_8sJOL_J7qTDZQ-9" value="HDMI" style="edgeStyle=orthogonalEdgeStyle;rounded=0;orthogonalLoop=1;jettySize=auto;html=1;exitX=0;exitY=0.5;exitDx=0;exitDy=0;entryX=1;entryY=0.5;entryDx=0;entryDy=0;" parent="1" source="JPDFNG_8sJOL_J7qTDZQ-2" target="JPDFNG_8sJOL_J7qTDZQ-7" edge="1">
          <mxGeometry relative="1" as="geometry" />
        </mxCell>
        <mxCell id="JPDFNG_8sJOL_J7qTDZQ-2" value="Raspberry&lt;br&gt;-IHM C#&lt;br&gt;-Base de donnée SQL&lt;br&gt;- Serveur WEB" style="rounded=0;whiteSpace=wrap;html=1;" parent="1" vertex="1">
          <mxGeometry x="320" y="390" width="130" height="160" as="geometry" />
        </mxCell>
        <mxCell id="JPDFNG_8sJOL_J7qTDZQ-4" value="CSI" style="edgeStyle=orthogonalEdgeStyle;rounded=0;orthogonalLoop=1;jettySize=auto;html=1;exitX=1;exitY=0.5;exitDx=0;exitDy=0;entryX=0.5;entryY=0;entryDx=0;entryDy=0;" parent="1" source="JPDFNG_8sJOL_J7qTDZQ-3" target="JPDFNG_8sJOL_J7qTDZQ-2" edge="1">
          <mxGeometry relative="1" as="geometry" />
        </mxCell>
        <mxCell id="JPDFNG_8sJOL_J7qTDZQ-3" value="Caméra&amp;nbsp;" style="rounded=0;whiteSpace=wrap;html=1;" parent="1" vertex="1">
          <mxGeometry x="100" y="320" width="120" height="60" as="geometry" />
        </mxCell>
        <mxCell id="JPDFNG_8sJOL_J7qTDZQ-6" value="Matériel industriel" style="rounded=0;whiteSpace=wrap;html=1;" parent="1" vertex="1">
          <mxGeometry x="320" y="80" width="130" height="60" as="geometry" />
        </mxCell>
        <mxCell id="JPDFNG_8sJOL_J7qTDZQ-7" value="Ecran" style="rounded=0;whiteSpace=wrap;html=1;" parent="1" vertex="1">
          <mxGeometry x="100" y="440" width="120" height="60" as="geometry" />
        </mxCell>
        <mxCell id="JPDFNG_8sJOL_J7qTDZQ-19" value="Liaison série&amp;nbsp;" style="edgeStyle=orthogonalEdgeStyle;rounded=0;orthogonalLoop=1;jettySize=auto;html=1;exitX=0.5;exitY=1;exitDx=0;exitDy=0;entryX=1;entryY=0.5;entryDx=0;entryDy=0;" parent="1" source="JPDFNG_8sJOL_J7qTDZQ-10" target="JPDFNG_8sJOL_J7qTDZQ-2" edge="1">
          <mxGeometry relative="1" as="geometry" />
        </mxCell>
        <mxCell id="JPDFNG_8sJOL_J7qTDZQ-20" value="Liaison normalisée" style="edgeStyle=orthogonalEdgeStyle;rounded=0;orthogonalLoop=1;jettySize=auto;html=1;exitX=0.5;exitY=0;exitDx=0;exitDy=0;entryX=1;entryY=0.5;entryDx=0;entryDy=0;" parent="1" source="JPDFNG_8sJOL_J7qTDZQ-10" target="JPDFNG_8sJOL_J7qTDZQ-6" edge="1">
          <mxGeometry relative="1" as="geometry" />
        </mxCell>
        <mxCell id="JPDFNG_8sJOL_J7qTDZQ-10" value="ESP32&lt;br&gt;-Acquisition de mesures" style="rounded=0;whiteSpace=wrap;html=1;" parent="1" vertex="1">
          <mxGeometry x="510" y="300" width="150" height="60" as="geometry" />
        </mxCell>
        <mxCell id="JPDFNG_8sJOL_J7qTDZQ-14" style="edgeStyle=orthogonalEdgeStyle;rounded=0;orthogonalLoop=1;jettySize=auto;html=1;exitX=0;exitY=0.5;exitDx=0;exitDy=0;entryX=1;entryY=0.5;entryDx=0;entryDy=0;" parent="1" source="JPDFNG_8sJOL_J7qTDZQ-11" target="JPDFNG_8sJOL_J7qTDZQ-10" edge="1">
          <mxGeometry relative="1" as="geometry" />
        </mxCell>
        <mxCell id="JPDFNG_8sJOL_J7qTDZQ-11" value="HX711" style="rounded=0;whiteSpace=wrap;html=1;" parent="1" vertex="1">
          <mxGeometry x="720" y="250" width="120" height="60" as="geometry" />
        </mxCell>
        <mxCell id="JPDFNG_8sJOL_J7qTDZQ-13" style="edgeStyle=orthogonalEdgeStyle;rounded=0;orthogonalLoop=1;jettySize=auto;html=1;exitX=0;exitY=0.5;exitDx=0;exitDy=0;entryX=1;entryY=0.5;entryDx=0;entryDy=0;" parent="1" source="JPDFNG_8sJOL_J7qTDZQ-12" target="JPDFNG_8sJOL_J7qTDZQ-10" edge="1">
          <mxGeometry relative="1" as="geometry" />
        </mxCell>
        <mxCell id="JPDFNG_8sJOL_J7qTDZQ-12" value="HX711" style="rounded=0;whiteSpace=wrap;html=1;" parent="1" vertex="1">
          <mxGeometry x="720" y="340" width="120" height="60" as="geometry" />
        </mxCell>
        <mxCell id="JPDFNG_8sJOL_J7qTDZQ-18" style="edgeStyle=orthogonalEdgeStyle;rounded=0;orthogonalLoop=1;jettySize=auto;html=1;exitX=0;exitY=0.5;exitDx=0;exitDy=0;entryX=1;entryY=0.5;entryDx=0;entryDy=0;" parent="1" source="JPDFNG_8sJOL_J7qTDZQ-15" target="JPDFNG_8sJOL_J7qTDZQ-11" edge="1">
          <mxGeometry relative="1" as="geometry" />
        </mxCell>
        <mxCell id="JPDFNG_8sJOL_J7qTDZQ-15" value="Jauge de pression" style="rounded=0;whiteSpace=wrap;html=1;" parent="1" vertex="1">
          <mxGeometry x="910" y="250" width="120" height="60" as="geometry" />
        </mxCell>
        <mxCell id="JPDFNG_8sJOL_J7qTDZQ-17" style="edgeStyle=orthogonalEdgeStyle;rounded=0;orthogonalLoop=1;jettySize=auto;html=1;exitX=0;exitY=0.5;exitDx=0;exitDy=0;entryX=1;entryY=0.5;entryDx=0;entryDy=0;" parent="1" source="JPDFNG_8sJOL_J7qTDZQ-16" target="JPDFNG_8sJOL_J7qTDZQ-12" edge="1">
          <mxGeometry relative="1" as="geometry" />
        </mxCell>
        <mxCell id="JPDFNG_8sJOL_J7qTDZQ-16" value="Jauge de pression" style="rounded=0;whiteSpace=wrap;html=1;" parent="1" vertex="1">
          <mxGeometry x="910" y="340" width="120" height="60" as="geometry" />
        </mxCell>
        <mxCell id="JPDFNG_8sJOL_J7qTDZQ-21" value="" style="endArrow=classic;startArrow=classic;html=1;rounded=0;entryX=0.5;entryY=1;entryDx=0;entryDy=0;exitX=0.5;exitY=0;exitDx=0;exitDy=0;" parent="1" source="JPDFNG_8sJOL_J7qTDZQ-2" target="JPDFNG_8sJOL_J7qTDZQ-1" edge="1">
          <mxGeometry width="50" height="50" relative="1" as="geometry">
            <mxPoint x="370" y="430" as="sourcePoint" />
            <mxPoint x="420" y="380" as="targetPoint" />
          </mxGeometry>
        </mxCell>
        <mxCell id="JPDFNG_8sJOL_J7qTDZQ-22" value="" style="endArrow=classic;html=1;rounded=0;entryX=0.5;entryY=1;entryDx=0;entryDy=0;" parent="1" target="JPDFNG_8sJOL_J7qTDZQ-10" edge="1">
          <mxGeometry width="50" height="50" relative="1" as="geometry">
            <mxPoint x="585" y="440" as="sourcePoint" />
            <mxPoint x="420" y="380" as="targetPoint" />
          </mxGeometry>
        </mxCell>
        <mxCell id="JPDFNG_8sJOL_J7qTDZQ-24" value="Mesure" style="rounded=0;whiteSpace=wrap;html=1;" parent="1" vertex="1">
          <mxGeometry x="20" y="680" width="120" height="30" as="geometry" />
        </mxCell>
        <mxCell id="JPDFNG_8sJOL_J7qTDZQ-25" value="-BDD" style="text;html=1;strokeColor=none;fillColor=none;align=center;verticalAlign=middle;whiteSpace=wrap;rounded=0;" parent="1" vertex="1">
          <mxGeometry x="140" y="630" width="60" height="30" as="geometry" />
        </mxCell>
        <mxCell id="JPDFNG_8sJOL_J7qTDZQ-26" value="idMesure&lt;br&gt;&lt;u&gt;idMateriel&lt;/u&gt;&lt;br&gt;dateMesure&lt;br&gt;nomMesure&lt;br&gt;Vitesse&lt;br&gt;Portance&lt;br&gt;Trainée" style="rounded=0;whiteSpace=wrap;html=1;" parent="1" vertex="1">
          <mxGeometry x="20" y="710" width="120" height="150" as="geometry" />
        </mxCell>
        <mxCell id="JPDFNG_8sJOL_J7qTDZQ-27" value="ConfMateriel" style="rounded=0;whiteSpace=wrap;html=1;" parent="1" vertex="1">
          <mxGeometry x="190" y="680" width="120" height="30" as="geometry" />
        </mxCell>
        <mxCell id="JPDFNG_8sJOL_J7qTDZQ-28" value="&lt;u&gt;idMateriel&lt;/u&gt;&lt;br&gt;nomMateriel&lt;br&gt;rho&lt;br&gt;Surface&lt;br&gt;Vitesse&lt;br&gt;Cz&lt;br&gt;Cx" style="rounded=0;whiteSpace=wrap;html=1;" parent="1" vertex="1">
          <mxGeometry x="190" y="710" width="120" height="150" as="geometry" />
        </mxCell>
        <mxCell id="JPDFNG_8sJOL_J7qTDZQ-29" value="" style="rounded=0;whiteSpace=wrap;html=1;" parent="1" vertex="1">
          <mxGeometry x="320" y="950" width="1020" height="590" as="geometry" />
        </mxCell>
        <mxCell id="JPDFNG_8sJOL_J7qTDZQ-32" value="&lt;font style=&quot;font-size: 40px;&quot;&gt;EOLIA&lt;/font&gt;" style="text;html=1;strokeColor=none;fillColor=none;align=center;verticalAlign=middle;whiteSpace=wrap;rounded=0;" parent="1" vertex="1">
          <mxGeometry x="770" y="990" width="120" height="30" as="geometry" />
        </mxCell>
        <mxCell id="JPDFNG_8sJOL_J7qTDZQ-33" value="Lancer l&#39;application" style="rounded=0;whiteSpace=wrap;html=1;fontSize=40;" parent="1" vertex="1">
          <mxGeometry x="545" y="1190" width="570" height="71" as="geometry" />
        </mxCell>
        <mxCell id="JPDFNG_8sJOL_J7qTDZQ-35" value="Date" style="text;html=1;strokeColor=none;fillColor=none;align=center;verticalAlign=middle;whiteSpace=wrap;rounded=0;fontSize=24;" parent="1" vertex="1">
          <mxGeometry x="1280" y="1510" width="60" height="30" as="geometry" />
        </mxCell>
        <mxCell id="JPDFNG_8sJOL_J7qTDZQ-37" value="&lt;font style=&quot;font-size: 15px;&quot;&gt;- Adresse bdd&lt;br&gt;- utilisateur bdd&lt;br&gt;- mot de passe bdd&lt;br&gt;&lt;/font&gt;" style="rounded=0;whiteSpace=wrap;html=1;fontSize=24;" parent="1" vertex="1">
          <mxGeometry x="680" y="630" width="190" height="100" as="geometry" />
        </mxCell>
        <mxCell id="JPDFNG_8sJOL_J7qTDZQ-38" value="Fichier de config" style="text;html=1;strokeColor=none;fillColor=none;align=center;verticalAlign=middle;whiteSpace=wrap;rounded=0;fontSize=24;" parent="1" vertex="1">
          <mxGeometry x="680" y="600" width="190" height="30" as="geometry" />
        </mxCell>
        <mxCell id="JPDFNG_8sJOL_J7qTDZQ-41" value="" style="rounded=0;whiteSpace=wrap;html=1;" parent="1" vertex="1">
          <mxGeometry x="320" y="1580" width="1020" height="590" as="geometry" />
        </mxCell>
        <mxCell id="JPDFNG_8sJOL_J7qTDZQ-42" value="&lt;font style=&quot;font-size: 40px;&quot;&gt;EOLIA&lt;/font&gt;" style="text;html=1;strokeColor=none;fillColor=none;align=center;verticalAlign=middle;whiteSpace=wrap;rounded=0;" parent="1" vertex="1">
          <mxGeometry x="770" y="1600" width="120" height="30" as="geometry" />
        </mxCell>
        <mxCell id="JPDFNG_8sJOL_J7qTDZQ-43" value="" style="rounded=0;whiteSpace=wrap;html=1;fontSize=15;" parent="1" vertex="1">
          <mxGeometry x="320" y="1670" width="1020" height="500" as="geometry" />
        </mxCell>
        <mxCell id="JPDFNG_8sJOL_J7qTDZQ-44" value="" style="rounded=0;whiteSpace=wrap;html=1;fontSize=15;" parent="1" vertex="1">
          <mxGeometry x="320" y="1650" width="1020" height="50" as="geometry" />
        </mxCell>
        <mxCell id="JPDFNG_8sJOL_J7qTDZQ-45" value="&lt;font style=&quot;font-size: 21px;&quot;&gt;Etat&lt;/font&gt;" style="rounded=0;whiteSpace=wrap;html=1;fontSize=15;fillColor=#CCCCCC;" parent="1" vertex="1">
          <mxGeometry x="320" y="1650" width="200" height="50" as="geometry" />
        </mxCell>
        <mxCell id="JPDFNG_8sJOL_J7qTDZQ-46" value="&lt;font style=&quot;font-size: 21px;&quot;&gt;Mesure&lt;/font&gt;" style="rounded=0;whiteSpace=wrap;html=1;fontSize=15;" parent="1" vertex="1">
          <mxGeometry x="520" y="1650" width="200" height="50" as="geometry" />
        </mxCell>
        <mxCell id="JPDFNG_8sJOL_J7qTDZQ-47" value="&lt;font style=&quot;font-size: 21px;&quot;&gt;Configuration&lt;/font&gt;" style="rounded=0;whiteSpace=wrap;html=1;fontSize=15;" parent="1" vertex="1">
          <mxGeometry x="720" y="1650" width="200" height="50" as="geometry" />
        </mxCell>
        <mxCell id="JPDFNG_8sJOL_J7qTDZQ-48" value="" style="rounded=0;whiteSpace=wrap;html=1;" parent="1" vertex="1">
          <mxGeometry x="1360" y="1580" width="1020" height="590" as="geometry" />
        </mxCell>
        <mxCell id="JPDFNG_8sJOL_J7qTDZQ-49" value="&lt;font style=&quot;font-size: 40px;&quot;&gt;EOLIA&lt;/font&gt;" style="text;html=1;strokeColor=none;fillColor=none;align=center;verticalAlign=middle;whiteSpace=wrap;rounded=0;" parent="1" vertex="1">
          <mxGeometry x="1810" y="1600" width="120" height="30" as="geometry" />
        </mxCell>
        <mxCell id="JPDFNG_8sJOL_J7qTDZQ-50" value="" style="rounded=0;whiteSpace=wrap;html=1;fontSize=15;" parent="1" vertex="1">
          <mxGeometry x="1360" y="1670" width="1020" height="500" as="geometry" />
        </mxCell>
        <mxCell id="JPDFNG_8sJOL_J7qTDZQ-51" value="" style="rounded=0;whiteSpace=wrap;html=1;fontSize=15;" parent="1" vertex="1">
          <mxGeometry x="1360" y="1650" width="1020" height="50" as="geometry" />
        </mxCell>
        <mxCell id="JPDFNG_8sJOL_J7qTDZQ-52" value="&lt;font style=&quot;font-size: 21px;&quot;&gt;Etat&lt;/font&gt;" style="rounded=0;whiteSpace=wrap;html=1;fontSize=15;fillColor=#FFFFFF;" parent="1" vertex="1">
          <mxGeometry x="1360" y="1650" width="200" height="50" as="geometry" />
        </mxCell>
        <mxCell id="JPDFNG_8sJOL_J7qTDZQ-53" value="&lt;font style=&quot;font-size: 21px;&quot;&gt;Mesure&lt;/font&gt;" style="rounded=0;whiteSpace=wrap;html=1;fontSize=15;fillColor=#CCCCCC;" parent="1" vertex="1">
          <mxGeometry x="1560" y="1650" width="200" height="50" as="geometry" />
        </mxCell>
        <mxCell id="JPDFNG_8sJOL_J7qTDZQ-54" value="&lt;font style=&quot;font-size: 21px;&quot;&gt;Configuration&lt;/font&gt;" style="rounded=0;whiteSpace=wrap;html=1;fontSize=15;" parent="1" vertex="1">
          <mxGeometry x="1760" y="1650" width="200" height="50" as="geometry" />
        </mxCell>
        <mxCell id="JPDFNG_8sJOL_J7qTDZQ-62" value="" style="rounded=0;whiteSpace=wrap;html=1;" parent="1" vertex="1">
          <mxGeometry x="2420" y="1580" width="1020" height="590" as="geometry" />
        </mxCell>
        <mxCell id="JPDFNG_8sJOL_J7qTDZQ-63" value="&lt;font style=&quot;font-size: 40px;&quot;&gt;EOLIA&lt;/font&gt;" style="text;html=1;strokeColor=none;fillColor=none;align=center;verticalAlign=middle;whiteSpace=wrap;rounded=0;" parent="1" vertex="1">
          <mxGeometry x="2870" y="1600" width="120" height="30" as="geometry" />
        </mxCell>
        <mxCell id="JPDFNG_8sJOL_J7qTDZQ-64" value="" style="rounded=0;whiteSpace=wrap;html=1;fontSize=15;" parent="1" vertex="1">
          <mxGeometry x="2420" y="1670" width="1020" height="500" as="geometry" />
        </mxCell>
        <mxCell id="JPDFNG_8sJOL_J7qTDZQ-65" value="" style="rounded=0;whiteSpace=wrap;html=1;fontSize=15;" parent="1" vertex="1">
          <mxGeometry x="2420" y="1650" width="1020" height="50" as="geometry" />
        </mxCell>
        <mxCell id="JPDFNG_8sJOL_J7qTDZQ-66" value="&lt;font style=&quot;font-size: 21px;&quot;&gt;Etat&lt;/font&gt;" style="rounded=0;whiteSpace=wrap;html=1;fontSize=15;fillColor=#FFFFFF;" parent="1" vertex="1">
          <mxGeometry x="2420" y="1650" width="200" height="50" as="geometry" />
        </mxCell>
        <mxCell id="JPDFNG_8sJOL_J7qTDZQ-67" value="&lt;font style=&quot;font-size: 21px;&quot;&gt;Mesure&lt;/font&gt;" style="rounded=0;whiteSpace=wrap;html=1;fontSize=15;" parent="1" vertex="1">
          <mxGeometry x="2620" y="1650" width="200" height="50" as="geometry" />
        </mxCell>
        <mxCell id="JPDFNG_8sJOL_J7qTDZQ-68" value="&lt;font style=&quot;font-size: 21px;&quot;&gt;Configuration&lt;/font&gt;" style="rounded=0;whiteSpace=wrap;html=1;fontSize=15;fillColor=#CCCCCC;" parent="1" vertex="1">
          <mxGeometry x="2820" y="1650" width="200" height="50" as="geometry" />
        </mxCell>
        <mxCell id="HuRnm2rSPpH4nqsMaASo-10" value="Arrêter l&#39;application" style="rounded=0;whiteSpace=wrap;html=1;fontSize=40;" parent="1" vertex="1">
          <mxGeometry x="545" y="2050" width="570" height="71" as="geometry" />
        </mxCell>
        <mxCell id="HuRnm2rSPpH4nqsMaASo-23" value="" style="ellipse;shape=cloud;whiteSpace=wrap;html=1;fontSize=21;" parent="1" vertex="1">
          <mxGeometry x="980" y="1744" width="324" height="216" as="geometry" />
        </mxCell>
        <mxCell id="HuRnm2rSPpH4nqsMaASo-24" value="VITESSE&lt;br&gt;XXX Km/h" style="text;html=1;strokeColor=none;fillColor=none;align=center;verticalAlign=middle;whiteSpace=wrap;rounded=0;fontSize=21;" parent="1" vertex="1">
          <mxGeometry x="1070" y="1822" width="160" height="60" as="geometry" />
        </mxCell>
        <mxCell id="HuRnm2rSPpH4nqsMaASo-26" value="" style="shape=cylinder3;whiteSpace=wrap;html=1;boundedLbl=1;backgroundOutline=1;size=15;fontSize=21;" parent="1" vertex="1">
          <mxGeometry x="430" y="1754" width="154.5" height="206" as="geometry" />
        </mxCell>
        <mxCell id="HuRnm2rSPpH4nqsMaASo-27" value="BASE&lt;br&gt;DE&lt;br&gt;DONNEE" style="text;html=1;strokeColor=none;fillColor=none;align=center;verticalAlign=middle;whiteSpace=wrap;rounded=0;fontSize=21;" parent="1" vertex="1">
          <mxGeometry x="467.25" y="1818" width="80" height="32" as="geometry" />
        </mxCell>
        <mxCell id="HuRnm2rSPpH4nqsMaASo-30" value="Connecter" style="text;html=1;strokeColor=none;fillColor=none;align=center;verticalAlign=middle;whiteSpace=wrap;rounded=0;fontSize=21;" parent="1" vertex="1">
          <mxGeometry x="450" y="1900" width="110" height="30" as="geometry" />
        </mxCell>
        <mxCell id="S_WBxvZwrHdkooQUaEvx-6" value="LogsIHM (static)&#xa;" style="swimlane;fontStyle=1;align=center;verticalAlign=top;childLayout=stackLayout;horizontal=1;startSize=26;horizontalStack=0;resizeParent=1;resizeParentMax=0;resizeLast=0;collapsible=1;marginBottom=0;" parent="1" vertex="1">
          <mxGeometry x="2130" y="602" width="250" height="180" as="geometry" />
        </mxCell>
        <mxCell id="S_WBxvZwrHdkooQUaEvx-7" value="- nbrFile: int&#xa;+ Types: enum" style="text;strokeColor=none;fillColor=none;align=left;verticalAlign=top;spacingLeft=4;spacingRight=4;overflow=hidden;rotatable=0;points=[[0,0.5],[1,0.5]];portConstraint=eastwest;" parent="S_WBxvZwrHdkooQUaEvx-6" vertex="1">
          <mxGeometry y="26" width="250" height="44" as="geometry" />
        </mxCell>
        <mxCell id="S_WBxvZwrHdkooQUaEvx-8" value="" style="line;strokeWidth=1;fillColor=none;align=left;verticalAlign=middle;spacingTop=-1;spacingLeft=3;spacingRight=3;rotatable=0;labelPosition=right;points=[];portConstraint=eastwest;strokeColor=inherit;" parent="S_WBxvZwrHdkooQUaEvx-6" vertex="1">
          <mxGeometry y="70" width="250" height="8" as="geometry" />
        </mxCell>
        <mxCell id="S_WBxvZwrHdkooQUaEvx-9" value="- FolderExist(): void&#xa;+ InitializeLogs(): void&#xa;+ FinishLogs(): void&#xa;+ Read(nbrLigne = 1: int): String[]&#xa;+ Write(String args, &#xa;    Types type = Types.OTHER): void" style="text;strokeColor=none;fillColor=none;align=left;verticalAlign=top;spacingLeft=4;spacingRight=4;overflow=hidden;rotatable=0;points=[[0,0.5],[1,0.5]];portConstraint=eastwest;" parent="S_WBxvZwrHdkooQUaEvx-6" vertex="1">
          <mxGeometry y="78" width="250" height="102" as="geometry" />
        </mxCell>
        <mxCell id="EXrrTwu7yXLMnrCZga6P-1" value="EoliaCam" style="swimlane;fontStyle=1;align=center;verticalAlign=top;childLayout=stackLayout;horizontal=1;startSize=26;horizontalStack=0;resizeParent=1;resizeParentMax=0;resizeLast=0;collapsible=1;marginBottom=0;" parent="1" vertex="1">
          <mxGeometry x="1860" y="602" width="250" height="260" as="geometry" />
        </mxCell>
        <mxCell id="EXrrTwu7yXLMnrCZga6P-2" value="- capture: Capture&#xa;- isStream : bool&#xa;- pictureBox : PictureBox&#xa;- numberFileExist : int" style="text;strokeColor=none;fillColor=none;align=left;verticalAlign=top;spacingLeft=4;spacingRight=4;overflow=hidden;rotatable=0;points=[[0,0.5],[1,0.5]];portConstraint=eastwest;" parent="EXrrTwu7yXLMnrCZga6P-1" vertex="1">
          <mxGeometry y="26" width="250" height="74" as="geometry" />
        </mxCell>
        <mxCell id="EXrrTwu7yXLMnrCZga6P-3" value="" style="line;strokeWidth=1;fillColor=none;align=left;verticalAlign=middle;spacingTop=-1;spacingLeft=3;spacingRight=3;rotatable=0;labelPosition=right;points=[];portConstraint=eastwest;strokeColor=inherit;" parent="EXrrTwu7yXLMnrCZga6P-1" vertex="1">
          <mxGeometry y="100" width="250" height="8" as="geometry" />
        </mxCell>
        <mxCell id="EXrrTwu7yXLMnrCZga6P-4" value="- streaming(object sender, EventArgs e): void&#xa;- convByteToImage(byte[] data) : Image&#xa;+ EoliaCam() : &#xa;+ isStream(): bool&#xa;+ DisplayPicture(PictureBox) : bool&#xa;+ DisplayVideo(PictureBox) : bool&#xa;+ SavePicture(String folder, &#xa;    float portance = 0, float trainee = 0) : bool&#xa;+ SaveVideo(String folder,&#xa;    float portance = 0, float trainee = 0) : bool&#xa;" style="text;strokeColor=none;fillColor=none;align=left;verticalAlign=top;spacingLeft=4;spacingRight=4;overflow=hidden;rotatable=0;points=[[0,0.5],[1,0.5]];portConstraint=eastwest;" parent="EXrrTwu7yXLMnrCZga6P-1" vertex="1">
          <mxGeometry y="108" width="250" height="152" as="geometry" />
        </mxCell>
        <mxCell id="8KWskMflxnfoTJ6MjDlv-12" value="Configurable via le fichier .conf" style="swimlane;childLayout=stackLayout;resizeParent=1;resizeParentMax=0;startSize=20;html=1;rounded=0;shadow=0;glass=0;strokeColor=default;fillColor=none;" parent="1" vertex="1">
          <mxGeometry x="2450" y="1724" width="420" height="150" as="geometry" />
        </mxCell>
        <mxCell id="8KWskMflxnfoTJ6MjDlv-13" value="MYSQL" style="swimlane;startSize=20;html=1;rounded=0;shadow=0;glass=0;strokeColor=default;fillColor=none;" parent="8KWskMflxnfoTJ6MjDlv-12" vertex="1">
          <mxGeometry y="20" width="210" height="130" as="geometry" />
        </mxCell>
        <mxCell id="8KWskMflxnfoTJ6MjDlv-16" value="Adresse serveur : localhost" style="text;html=1;strokeColor=none;fillColor=none;align=left;verticalAlign=middle;whiteSpace=wrap;rounded=0;shadow=0;glass=0;" parent="8KWskMflxnfoTJ6MjDlv-13" vertex="1">
          <mxGeometry x="10" y="26" width="170" height="24" as="geometry" />
        </mxCell>
        <mxCell id="8KWskMflxnfoTJ6MjDlv-19" value="Mot de passe utilisateur : eolia" style="text;html=1;strokeColor=none;fillColor=none;align=left;verticalAlign=middle;whiteSpace=wrap;rounded=0;shadow=0;glass=0;" parent="8KWskMflxnfoTJ6MjDlv-13" vertex="1">
          <mxGeometry x="10" y="76" width="170" height="20" as="geometry" />
        </mxCell>
        <mxCell id="8KWskMflxnfoTJ6MjDlv-14" value="Site Internet" style="swimlane;startSize=20;html=1;rounded=0;shadow=0;glass=0;strokeColor=default;fillColor=none;" parent="8KWskMflxnfoTJ6MjDlv-12" vertex="1">
          <mxGeometry x="210" y="20" width="210" height="130" as="geometry" />
        </mxCell>
        <mxCell id="8KWskMflxnfoTJ6MjDlv-20" value="Répertoire : &lt;i&gt;/var/www/eolia/&amp;nbsp;&lt;/i&gt;" style="text;html=1;strokeColor=none;fillColor=none;align=left;verticalAlign=middle;whiteSpace=wrap;rounded=0;shadow=0;glass=0;" parent="8KWskMflxnfoTJ6MjDlv-14" vertex="1">
          <mxGeometry x="10" y="26" width="170" height="24" as="geometry" />
        </mxCell>
        <mxCell id="8KWskMflxnfoTJ6MjDlv-18" value="Nom d&#39;utilisateur : eolia" style="text;html=1;strokeColor=none;fillColor=none;align=left;verticalAlign=middle;whiteSpace=wrap;rounded=0;shadow=0;glass=0;" parent="1" vertex="1">
          <mxGeometry x="2460" y="1794" width="170" height="20" as="geometry" />
        </mxCell>
        <mxCell id="8KWskMflxnfoTJ6MjDlv-23" value="Choix des ports série pour &#xa;les différents capteurs" style="shape=table;startSize=50;container=1;collapsible=0;childLayout=tableLayout;fixedRows=1;rowLines=0;fontStyle=0;strokeColor=default;fontSize=16;rounded=0;shadow=0;glass=0;fillColor=none;" parent="1" vertex="1">
          <mxGeometry x="2450" y="1900" width="200" height="110" as="geometry" />
        </mxCell>
        <mxCell id="8KWskMflxnfoTJ6MjDlv-24" value="" style="shape=tableRow;horizontal=0;startSize=0;swimlaneHead=0;swimlaneBody=0;top=0;left=0;bottom=0;right=0;collapsible=0;dropTarget=0;fillColor=none;points=[[0,0.5],[1,0.5]];portConstraint=eastwest;strokeColor=inherit;fontSize=16;rounded=0;shadow=0;glass=0;" parent="8KWskMflxnfoTJ6MjDlv-23" vertex="1">
          <mxGeometry y="50" width="200" height="30" as="geometry" />
        </mxCell>
        <mxCell id="8KWskMflxnfoTJ6MjDlv-25" value="Capteur 1" style="shape=partialRectangle;html=1;whiteSpace=wrap;connectable=0;fillColor=none;top=0;left=0;bottom=0;right=0;overflow=hidden;pointerEvents=1;strokeColor=inherit;fontSize=16;rounded=0;shadow=0;glass=0;" parent="8KWskMflxnfoTJ6MjDlv-24" vertex="1">
          <mxGeometry width="120" height="30" as="geometry">
            <mxRectangle width="120" height="30" as="alternateBounds" />
          </mxGeometry>
        </mxCell>
        <mxCell id="8KWskMflxnfoTJ6MjDlv-26" value="COM 1" style="shape=partialRectangle;html=1;whiteSpace=wrap;connectable=0;fillColor=none;top=0;left=0;bottom=0;right=0;align=left;spacingLeft=6;overflow=hidden;strokeColor=inherit;fontSize=16;rounded=0;shadow=0;glass=0;perimeterSpacing=1;" parent="8KWskMflxnfoTJ6MjDlv-24" vertex="1">
          <mxGeometry x="120" width="80" height="30" as="geometry">
            <mxRectangle width="80" height="30" as="alternateBounds" />
          </mxGeometry>
        </mxCell>
        <mxCell id="8KWskMflxnfoTJ6MjDlv-27" value="" style="shape=tableRow;horizontal=0;startSize=0;swimlaneHead=0;swimlaneBody=0;top=0;left=0;bottom=0;right=0;collapsible=0;dropTarget=0;fillColor=none;points=[[0,0.5],[1,0.5]];portConstraint=eastwest;strokeColor=inherit;fontSize=16;rounded=0;shadow=0;glass=0;" parent="8KWskMflxnfoTJ6MjDlv-23" vertex="1">
          <mxGeometry y="80" width="200" height="30" as="geometry" />
        </mxCell>
        <mxCell id="8KWskMflxnfoTJ6MjDlv-28" value="Capteur 2" style="shape=partialRectangle;html=1;whiteSpace=wrap;connectable=0;fillColor=none;top=0;left=0;bottom=0;right=0;overflow=hidden;strokeColor=inherit;fontSize=16;rounded=0;shadow=0;glass=0;" parent="8KWskMflxnfoTJ6MjDlv-27" vertex="1">
          <mxGeometry width="120" height="30" as="geometry">
            <mxRectangle width="120" height="30" as="alternateBounds" />
          </mxGeometry>
        </mxCell>
        <mxCell id="8KWskMflxnfoTJ6MjDlv-29" value="COM 2" style="shape=partialRectangle;html=1;whiteSpace=wrap;connectable=0;fillColor=none;top=0;left=0;bottom=0;right=0;align=left;spacingLeft=6;overflow=hidden;strokeColor=inherit;fontSize=16;rounded=0;shadow=0;glass=0;" parent="8KWskMflxnfoTJ6MjDlv-27" vertex="1">
          <mxGeometry x="120" width="80" height="30" as="geometry">
            <mxRectangle width="80" height="30" as="alternateBounds" />
          </mxGeometry>
        </mxCell>
        <mxCell id="8KWskMflxnfoTJ6MjDlv-33" value="Choix des ports série pour &#xa;les différents régulateurs" style="shape=table;startSize=50;container=1;collapsible=0;childLayout=tableLayout;fixedRows=1;rowLines=0;fontStyle=0;strokeColor=default;fontSize=16;rounded=0;shadow=0;glass=0;fillColor=none;" parent="1" vertex="1">
          <mxGeometry x="2450" y="2030.5" width="200" height="110" as="geometry" />
        </mxCell>
        <mxCell id="8KWskMflxnfoTJ6MjDlv-34" value="" style="shape=tableRow;horizontal=0;startSize=0;swimlaneHead=0;swimlaneBody=0;top=0;left=0;bottom=0;right=0;collapsible=0;dropTarget=0;fillColor=none;points=[[0,0.5],[1,0.5]];portConstraint=eastwest;strokeColor=inherit;fontSize=16;rounded=0;shadow=0;glass=0;" parent="8KWskMflxnfoTJ6MjDlv-33" vertex="1">
          <mxGeometry y="50" width="200" height="30" as="geometry" />
        </mxCell>
        <mxCell id="8KWskMflxnfoTJ6MjDlv-35" value="Régulateurs 1" style="shape=partialRectangle;html=1;whiteSpace=wrap;connectable=0;fillColor=none;top=0;left=0;bottom=0;right=0;overflow=hidden;pointerEvents=1;strokeColor=inherit;fontSize=16;rounded=0;shadow=0;glass=0;" parent="8KWskMflxnfoTJ6MjDlv-34" vertex="1">
          <mxGeometry width="120" height="30" as="geometry">
            <mxRectangle width="120" height="30" as="alternateBounds" />
          </mxGeometry>
        </mxCell>
        <mxCell id="8KWskMflxnfoTJ6MjDlv-36" value="COM 1" style="shape=partialRectangle;html=1;whiteSpace=wrap;connectable=0;fillColor=none;top=0;left=0;bottom=0;right=0;align=left;spacingLeft=6;overflow=hidden;strokeColor=inherit;fontSize=16;rounded=0;shadow=0;glass=0;" parent="8KWskMflxnfoTJ6MjDlv-34" vertex="1">
          <mxGeometry x="120" width="80" height="30" as="geometry">
            <mxRectangle width="80" height="30" as="alternateBounds" />
          </mxGeometry>
        </mxCell>
        <mxCell id="8KWskMflxnfoTJ6MjDlv-37" value="" style="shape=tableRow;horizontal=0;startSize=0;swimlaneHead=0;swimlaneBody=0;top=0;left=0;bottom=0;right=0;collapsible=0;dropTarget=0;fillColor=none;points=[[0,0.5],[1,0.5]];portConstraint=eastwest;strokeColor=inherit;fontSize=16;rounded=0;shadow=0;glass=0;" parent="8KWskMflxnfoTJ6MjDlv-33" vertex="1">
          <mxGeometry y="80" width="200" height="30" as="geometry" />
        </mxCell>
        <mxCell id="8KWskMflxnfoTJ6MjDlv-38" value="Régulateurs 2" style="shape=partialRectangle;html=1;whiteSpace=wrap;connectable=0;fillColor=none;top=0;left=0;bottom=0;right=0;overflow=hidden;strokeColor=inherit;fontSize=16;rounded=0;shadow=0;glass=0;" parent="8KWskMflxnfoTJ6MjDlv-37" vertex="1">
          <mxGeometry width="120" height="30" as="geometry">
            <mxRectangle width="120" height="30" as="alternateBounds" />
          </mxGeometry>
        </mxCell>
        <mxCell id="8KWskMflxnfoTJ6MjDlv-39" value="COM 2" style="shape=partialRectangle;html=1;whiteSpace=wrap;connectable=0;fillColor=none;top=0;left=0;bottom=0;right=0;align=left;spacingLeft=6;overflow=hidden;strokeColor=inherit;fontSize=16;rounded=0;shadow=0;glass=0;" parent="8KWskMflxnfoTJ6MjDlv-37" vertex="1">
          <mxGeometry x="120" width="80" height="30" as="geometry">
            <mxRectangle width="80" height="30" as="alternateBounds" />
          </mxGeometry>
        </mxCell>
        <mxCell id="8KWskMflxnfoTJ6MjDlv-44" value="Sauvegarder la Configuration" style="html=1;whiteSpace=wrap;container=1;recursiveResize=0;collapsible=0;rounded=0;shadow=0;glass=0;strokeColor=default;fillColor=none;" parent="1" vertex="1">
          <mxGeometry x="3210" y="1784" width="200" height="52" as="geometry" />
        </mxCell>
        <mxCell id="8KWskMflxnfoTJ6MjDlv-49" value="" style="shape=table;startSize=0;container=1;collapsible=0;childLayout=tableLayout;fontSize=16;rounded=0;shadow=0;glass=0;strokeColor=default;fillColor=none;" parent="1" vertex="1">
          <mxGeometry x="3000" y="1860" width="410" height="280" as="geometry" />
        </mxCell>
        <mxCell id="8KWskMflxnfoTJ6MjDlv-50" value="" style="shape=tableRow;horizontal=0;startSize=0;swimlaneHead=0;swimlaneBody=0;strokeColor=inherit;top=0;left=0;bottom=0;right=0;collapsible=0;dropTarget=0;fillColor=none;points=[[0,0.5],[1,0.5]];portConstraint=eastwest;fontSize=16;rounded=0;shadow=0;glass=0;" parent="8KWskMflxnfoTJ6MjDlv-49" vertex="1">
          <mxGeometry width="410" height="70" as="geometry" />
        </mxCell>
        <mxCell id="8KWskMflxnfoTJ6MjDlv-51" value="&lt;b&gt;1&lt;/b&gt;" style="shape=partialRectangle;html=1;whiteSpace=wrap;connectable=0;strokeColor=inherit;overflow=hidden;fillColor=none;top=0;left=0;bottom=0;right=0;pointerEvents=1;fontSize=16;rounded=0;shadow=0;glass=0;" parent="8KWskMflxnfoTJ6MjDlv-50" vertex="1">
          <mxGeometry width="136" height="70" as="geometry">
            <mxRectangle width="136" height="70" as="alternateBounds" />
          </mxGeometry>
        </mxCell>
        <mxCell id="8KWskMflxnfoTJ6MjDlv-52" value="&lt;b&gt;2&lt;/b&gt;" style="shape=partialRectangle;html=1;whiteSpace=wrap;connectable=0;strokeColor=inherit;overflow=hidden;fillColor=none;top=0;left=0;bottom=0;right=0;pointerEvents=1;fontSize=16;rounded=0;shadow=0;glass=0;" parent="8KWskMflxnfoTJ6MjDlv-50" vertex="1">
          <mxGeometry x="136" width="138" height="70" as="geometry">
            <mxRectangle width="138" height="70" as="alternateBounds" />
          </mxGeometry>
        </mxCell>
        <mxCell id="8KWskMflxnfoTJ6MjDlv-53" value="&lt;b&gt;3&lt;/b&gt;" style="shape=partialRectangle;html=1;whiteSpace=wrap;connectable=0;strokeColor=inherit;overflow=hidden;fillColor=none;top=0;left=0;bottom=0;right=0;pointerEvents=1;fontSize=16;rounded=0;shadow=0;glass=0;" parent="8KWskMflxnfoTJ6MjDlv-50" vertex="1">
          <mxGeometry x="274" width="136" height="70" as="geometry">
            <mxRectangle width="136" height="70" as="alternateBounds" />
          </mxGeometry>
        </mxCell>
        <mxCell id="8KWskMflxnfoTJ6MjDlv-54" value="" style="shape=tableRow;horizontal=0;startSize=0;swimlaneHead=0;swimlaneBody=0;strokeColor=inherit;top=0;left=0;bottom=0;right=0;collapsible=0;dropTarget=0;fillColor=none;points=[[0,0.5],[1,0.5]];portConstraint=eastwest;fontSize=16;rounded=0;shadow=0;glass=0;" parent="8KWskMflxnfoTJ6MjDlv-49" vertex="1">
          <mxGeometry y="70" width="410" height="70" as="geometry" />
        </mxCell>
        <mxCell id="8KWskMflxnfoTJ6MjDlv-55" value="&lt;b&gt;4&lt;/b&gt;" style="shape=partialRectangle;html=1;whiteSpace=wrap;connectable=0;strokeColor=inherit;overflow=hidden;fillColor=none;top=0;left=0;bottom=0;right=0;pointerEvents=1;fontSize=16;rounded=0;shadow=0;glass=0;" parent="8KWskMflxnfoTJ6MjDlv-54" vertex="1">
          <mxGeometry width="136" height="70" as="geometry">
            <mxRectangle width="136" height="70" as="alternateBounds" />
          </mxGeometry>
        </mxCell>
        <mxCell id="8KWskMflxnfoTJ6MjDlv-56" value="&lt;b&gt;5&lt;/b&gt;" style="shape=partialRectangle;html=1;whiteSpace=wrap;connectable=0;strokeColor=inherit;overflow=hidden;fillColor=none;top=0;left=0;bottom=0;right=0;pointerEvents=1;fontSize=16;rounded=0;shadow=0;glass=0;" parent="8KWskMflxnfoTJ6MjDlv-54" vertex="1">
          <mxGeometry x="136" width="138" height="70" as="geometry">
            <mxRectangle width="138" height="70" as="alternateBounds" />
          </mxGeometry>
        </mxCell>
        <mxCell id="8KWskMflxnfoTJ6MjDlv-57" value="&lt;b&gt;6&lt;/b&gt;" style="shape=partialRectangle;html=1;whiteSpace=wrap;connectable=0;strokeColor=inherit;overflow=hidden;fillColor=none;top=0;left=0;bottom=0;right=0;pointerEvents=1;fontSize=16;rounded=0;shadow=0;glass=0;" parent="8KWskMflxnfoTJ6MjDlv-54" vertex="1">
          <mxGeometry x="274" width="136" height="70" as="geometry">
            <mxRectangle width="136" height="70" as="alternateBounds" />
          </mxGeometry>
        </mxCell>
        <mxCell id="8KWskMflxnfoTJ6MjDlv-58" value="" style="shape=tableRow;horizontal=0;startSize=0;swimlaneHead=0;swimlaneBody=0;strokeColor=inherit;top=0;left=0;bottom=0;right=0;collapsible=0;dropTarget=0;fillColor=none;points=[[0,0.5],[1,0.5]];portConstraint=eastwest;fontSize=16;rounded=0;shadow=0;glass=0;" parent="8KWskMflxnfoTJ6MjDlv-49" vertex="1">
          <mxGeometry y="140" width="410" height="70" as="geometry" />
        </mxCell>
        <mxCell id="8KWskMflxnfoTJ6MjDlv-59" value="&lt;b&gt;7&lt;/b&gt;" style="shape=partialRectangle;html=1;whiteSpace=wrap;connectable=0;strokeColor=inherit;overflow=hidden;fillColor=none;top=0;left=0;bottom=0;right=0;pointerEvents=1;fontSize=16;rounded=0;shadow=0;glass=0;" parent="8KWskMflxnfoTJ6MjDlv-58" vertex="1">
          <mxGeometry width="136" height="70" as="geometry">
            <mxRectangle width="136" height="70" as="alternateBounds" />
          </mxGeometry>
        </mxCell>
        <mxCell id="8KWskMflxnfoTJ6MjDlv-60" value="&lt;b&gt;8&lt;/b&gt;" style="shape=partialRectangle;html=1;whiteSpace=wrap;connectable=0;strokeColor=inherit;overflow=hidden;fillColor=none;top=0;left=0;bottom=0;right=0;pointerEvents=1;fontSize=16;rounded=0;shadow=0;glass=0;" parent="8KWskMflxnfoTJ6MjDlv-58" vertex="1">
          <mxGeometry x="136" width="138" height="70" as="geometry">
            <mxRectangle width="138" height="70" as="alternateBounds" />
          </mxGeometry>
        </mxCell>
        <mxCell id="8KWskMflxnfoTJ6MjDlv-61" value="&lt;b&gt;9&lt;/b&gt;" style="shape=partialRectangle;html=1;whiteSpace=wrap;connectable=0;strokeColor=inherit;overflow=hidden;fillColor=none;top=0;left=0;bottom=0;right=0;pointerEvents=1;fontSize=16;rounded=0;shadow=0;glass=0;" parent="8KWskMflxnfoTJ6MjDlv-58" vertex="1">
          <mxGeometry x="274" width="136" height="70" as="geometry">
            <mxRectangle width="136" height="70" as="alternateBounds" />
          </mxGeometry>
        </mxCell>
        <mxCell id="8KWskMflxnfoTJ6MjDlv-65" value="" style="shape=tableRow;horizontal=0;startSize=0;swimlaneHead=0;swimlaneBody=0;strokeColor=inherit;top=0;left=0;bottom=0;right=0;collapsible=0;dropTarget=0;fillColor=none;points=[[0,0.5],[1,0.5]];portConstraint=eastwest;fontSize=16;rounded=0;shadow=0;glass=0;" parent="8KWskMflxnfoTJ6MjDlv-49" vertex="1">
          <mxGeometry y="210" width="410" height="70" as="geometry" />
        </mxCell>
        <mxCell id="8KWskMflxnfoTJ6MjDlv-66" value="&lt;font size=&quot;1&quot; style=&quot;&quot;&gt;&lt;b style=&quot;font-size: 20px;&quot;&gt;.&lt;/b&gt;&lt;/font&gt;" style="shape=partialRectangle;html=1;whiteSpace=wrap;connectable=0;strokeColor=inherit;overflow=hidden;fillColor=none;top=0;left=0;bottom=0;right=0;pointerEvents=1;fontSize=16;rounded=0;shadow=0;glass=0;" parent="8KWskMflxnfoTJ6MjDlv-65" vertex="1">
          <mxGeometry width="136" height="70" as="geometry">
            <mxRectangle width="136" height="70" as="alternateBounds" />
          </mxGeometry>
        </mxCell>
        <mxCell id="8KWskMflxnfoTJ6MjDlv-67" value="&lt;b&gt;0&lt;/b&gt;" style="shape=partialRectangle;html=1;whiteSpace=wrap;connectable=0;strokeColor=inherit;overflow=hidden;fillColor=none;top=0;left=0;bottom=0;right=0;pointerEvents=1;fontSize=16;rounded=0;shadow=0;glass=0;" parent="8KWskMflxnfoTJ6MjDlv-65" vertex="1">
          <mxGeometry x="136" width="138" height="70" as="geometry">
            <mxRectangle width="138" height="70" as="alternateBounds" />
          </mxGeometry>
        </mxCell>
        <mxCell id="8KWskMflxnfoTJ6MjDlv-68" value="&lt;b&gt;Suppr&lt;/b&gt;" style="shape=partialRectangle;html=1;whiteSpace=wrap;connectable=0;strokeColor=inherit;overflow=hidden;fillColor=none;top=0;left=0;bottom=0;right=0;pointerEvents=1;fontSize=16;rounded=0;shadow=0;glass=0;" parent="8KWskMflxnfoTJ6MjDlv-65" vertex="1">
          <mxGeometry x="274" width="136" height="70" as="geometry">
            <mxRectangle width="136" height="70" as="alternateBounds" />
          </mxGeometry>
        </mxCell>
        <mxCell id="8KWskMflxnfoTJ6MjDlv-70" value="Valeurs changeables" style="shape=table;startSize=30;container=1;collapsible=0;childLayout=tableLayout;fixedRows=1;rowLines=0;fontStyle=0;strokeColor=default;fontSize=16;rounded=0;shadow=0;glass=0;fillColor=none;" parent="1" vertex="1">
          <mxGeometry x="2680" y="1900" width="190" height="240" as="geometry" />
        </mxCell>
        <mxCell id="8KWskMflxnfoTJ6MjDlv-71" value="" style="shape=tableRow;horizontal=0;startSize=0;swimlaneHead=0;swimlaneBody=0;top=0;left=0;bottom=0;right=0;collapsible=0;dropTarget=0;fillColor=none;points=[[0,0.5],[1,0.5]];portConstraint=eastwest;strokeColor=inherit;fontSize=16;rounded=0;shadow=0;glass=0;" parent="8KWskMflxnfoTJ6MjDlv-70" vertex="1">
          <mxGeometry y="30" width="190" height="30" as="geometry" />
        </mxCell>
        <mxCell id="8KWskMflxnfoTJ6MjDlv-72" value="Cx" style="shape=partialRectangle;html=1;whiteSpace=wrap;connectable=0;fillColor=none;top=0;left=0;bottom=0;right=0;overflow=hidden;pointerEvents=1;strokeColor=inherit;fontSize=16;rounded=0;shadow=0;glass=0;" parent="8KWskMflxnfoTJ6MjDlv-71" vertex="1">
          <mxGeometry width="42" height="30" as="geometry">
            <mxRectangle width="42" height="30" as="alternateBounds" />
          </mxGeometry>
        </mxCell>
        <mxCell id="8KWskMflxnfoTJ6MjDlv-73" value="6" style="shape=partialRectangle;html=1;whiteSpace=wrap;connectable=0;fillColor=none;top=0;left=0;bottom=0;right=0;align=left;spacingLeft=6;overflow=hidden;strokeColor=inherit;fontSize=16;rounded=0;shadow=0;glass=0;" parent="8KWskMflxnfoTJ6MjDlv-71" vertex="1">
          <mxGeometry x="42" width="148" height="30" as="geometry">
            <mxRectangle width="148" height="30" as="alternateBounds" />
          </mxGeometry>
        </mxCell>
        <mxCell id="8KWskMflxnfoTJ6MjDlv-74" value="" style="shape=tableRow;horizontal=0;startSize=0;swimlaneHead=0;swimlaneBody=0;top=0;left=0;bottom=0;right=0;collapsible=0;dropTarget=0;fillColor=none;points=[[0,0.5],[1,0.5]];portConstraint=eastwest;strokeColor=inherit;fontSize=16;rounded=0;shadow=0;glass=0;" parent="8KWskMflxnfoTJ6MjDlv-70" vertex="1">
          <mxGeometry y="60" width="190" height="30" as="geometry" />
        </mxCell>
        <mxCell id="8KWskMflxnfoTJ6MjDlv-75" value="Cz" style="shape=partialRectangle;html=1;whiteSpace=wrap;connectable=0;fillColor=none;top=0;left=0;bottom=0;right=0;overflow=hidden;strokeColor=inherit;fontSize=16;rounded=0;shadow=0;glass=0;" parent="8KWskMflxnfoTJ6MjDlv-74" vertex="1">
          <mxGeometry width="42" height="30" as="geometry">
            <mxRectangle width="42" height="30" as="alternateBounds" />
          </mxGeometry>
        </mxCell>
        <mxCell id="8KWskMflxnfoTJ6MjDlv-76" value="612.86" style="shape=partialRectangle;html=1;whiteSpace=wrap;connectable=0;fillColor=none;top=0;left=0;bottom=0;right=0;align=left;spacingLeft=6;overflow=hidden;strokeColor=inherit;fontSize=16;rounded=0;shadow=0;glass=0;" parent="8KWskMflxnfoTJ6MjDlv-74" vertex="1">
          <mxGeometry x="42" width="148" height="30" as="geometry">
            <mxRectangle width="148" height="30" as="alternateBounds" />
          </mxGeometry>
        </mxCell>
        <mxCell id="8KWskMflxnfoTJ6MjDlv-77" value="" style="shape=tableRow;horizontal=0;startSize=0;swimlaneHead=0;swimlaneBody=0;top=0;left=0;bottom=0;right=0;collapsible=0;dropTarget=0;fillColor=none;points=[[0,0.5],[1,0.5]];portConstraint=eastwest;strokeColor=inherit;fontSize=16;rounded=0;shadow=0;glass=0;" parent="8KWskMflxnfoTJ6MjDlv-70" vertex="1">
          <mxGeometry y="90" width="190" height="30" as="geometry" />
        </mxCell>
        <mxCell id="8KWskMflxnfoTJ6MjDlv-78" value="P" style="shape=partialRectangle;html=1;whiteSpace=wrap;connectable=0;fillColor=none;top=0;left=0;bottom=0;right=0;overflow=hidden;strokeColor=inherit;fontSize=16;rounded=0;shadow=0;glass=0;" parent="8KWskMflxnfoTJ6MjDlv-77" vertex="1">
          <mxGeometry width="42" height="30" as="geometry">
            <mxRectangle width="42" height="30" as="alternateBounds" />
          </mxGeometry>
        </mxCell>
        <mxCell id="8KWskMflxnfoTJ6MjDlv-79" value="6" style="shape=partialRectangle;html=1;whiteSpace=wrap;connectable=0;fillColor=none;top=0;left=0;bottom=0;right=0;align=left;spacingLeft=6;overflow=hidden;strokeColor=inherit;fontSize=16;rounded=0;shadow=0;glass=0;" parent="8KWskMflxnfoTJ6MjDlv-77" vertex="1">
          <mxGeometry x="42" width="148" height="30" as="geometry">
            <mxRectangle width="148" height="30" as="alternateBounds" />
          </mxGeometry>
        </mxCell>
        <mxCell id="8KWskMflxnfoTJ6MjDlv-93" value="" style="shape=tableRow;horizontal=0;startSize=0;swimlaneHead=0;swimlaneBody=0;top=0;left=0;bottom=0;right=0;collapsible=0;dropTarget=0;fillColor=none;points=[[0,0.5],[1,0.5]];portConstraint=eastwest;strokeColor=inherit;fontSize=16;rounded=0;shadow=0;glass=0;" parent="8KWskMflxnfoTJ6MjDlv-70" vertex="1">
          <mxGeometry y="120" width="190" height="30" as="geometry" />
        </mxCell>
        <mxCell id="8KWskMflxnfoTJ6MjDlv-94" value="V" style="shape=partialRectangle;html=1;whiteSpace=wrap;connectable=0;fillColor=none;top=0;left=0;bottom=0;right=0;overflow=hidden;strokeColor=inherit;fontSize=16;rounded=0;shadow=0;glass=0;" parent="8KWskMflxnfoTJ6MjDlv-93" vertex="1">
          <mxGeometry width="42" height="30" as="geometry">
            <mxRectangle width="42" height="30" as="alternateBounds" />
          </mxGeometry>
        </mxCell>
        <mxCell id="8KWskMflxnfoTJ6MjDlv-95" value="6" style="shape=partialRectangle;html=1;whiteSpace=wrap;connectable=0;fillColor=none;top=0;left=0;bottom=0;right=0;align=left;spacingLeft=6;overflow=hidden;strokeColor=inherit;fontSize=16;rounded=0;shadow=0;glass=0;" parent="8KWskMflxnfoTJ6MjDlv-93" vertex="1">
          <mxGeometry x="42" width="148" height="30" as="geometry">
            <mxRectangle width="148" height="30" as="alternateBounds" />
          </mxGeometry>
        </mxCell>
        <mxCell id="8KWskMflxnfoTJ6MjDlv-96" value="" style="shape=tableRow;horizontal=0;startSize=0;swimlaneHead=0;swimlaneBody=0;top=0;left=0;bottom=0;right=0;collapsible=0;dropTarget=0;fillColor=none;points=[[0,0.5],[1,0.5]];portConstraint=eastwest;strokeColor=inherit;fontSize=16;rounded=0;shadow=0;glass=0;" parent="8KWskMflxnfoTJ6MjDlv-70" vertex="1">
          <mxGeometry y="150" width="190" height="30" as="geometry" />
        </mxCell>
        <mxCell id="8KWskMflxnfoTJ6MjDlv-97" value="S" style="shape=partialRectangle;html=1;whiteSpace=wrap;connectable=0;fillColor=none;top=0;left=0;bottom=0;right=0;overflow=hidden;strokeColor=inherit;fontSize=16;rounded=0;shadow=0;glass=0;" parent="8KWskMflxnfoTJ6MjDlv-96" vertex="1">
          <mxGeometry width="42" height="30" as="geometry">
            <mxRectangle width="42" height="30" as="alternateBounds" />
          </mxGeometry>
        </mxCell>
        <mxCell id="8KWskMflxnfoTJ6MjDlv-98" value="6" style="shape=partialRectangle;html=1;whiteSpace=wrap;connectable=0;fillColor=none;top=0;left=0;bottom=0;right=0;align=left;spacingLeft=6;overflow=hidden;strokeColor=inherit;fontSize=16;rounded=0;shadow=0;glass=0;" parent="8KWskMflxnfoTJ6MjDlv-96" vertex="1">
          <mxGeometry x="42" width="148" height="30" as="geometry">
            <mxRectangle width="148" height="30" as="alternateBounds" />
          </mxGeometry>
        </mxCell>
        <mxCell id="8KWskMflxnfoTJ6MjDlv-99" value="" style="shape=tableRow;horizontal=0;startSize=0;swimlaneHead=0;swimlaneBody=0;top=0;left=0;bottom=0;right=0;collapsible=0;dropTarget=0;fillColor=none;points=[[0,0.5],[1,0.5]];portConstraint=eastwest;strokeColor=inherit;fontSize=16;rounded=0;shadow=0;glass=0;" parent="8KWskMflxnfoTJ6MjDlv-70" vertex="1">
          <mxGeometry y="180" width="190" height="30" as="geometry" />
        </mxCell>
        <mxCell id="8KWskMflxnfoTJ6MjDlv-100" value="other" style="shape=partialRectangle;html=1;whiteSpace=wrap;connectable=0;fillColor=none;top=0;left=0;bottom=0;right=0;overflow=hidden;strokeColor=inherit;fontSize=16;rounded=0;shadow=0;glass=0;" parent="8KWskMflxnfoTJ6MjDlv-99" vertex="1">
          <mxGeometry width="42" height="30" as="geometry">
            <mxRectangle width="42" height="30" as="alternateBounds" />
          </mxGeometry>
        </mxCell>
        <mxCell id="8KWskMflxnfoTJ6MjDlv-101" value="other" style="shape=partialRectangle;html=1;whiteSpace=wrap;connectable=0;fillColor=none;top=0;left=0;bottom=0;right=0;align=left;spacingLeft=6;overflow=hidden;strokeColor=inherit;fontSize=16;rounded=0;shadow=0;glass=0;" parent="8KWskMflxnfoTJ6MjDlv-99" vertex="1">
          <mxGeometry x="42" width="148" height="30" as="geometry">
            <mxRectangle width="148" height="30" as="alternateBounds" />
          </mxGeometry>
        </mxCell>
        <mxCell id="8KWskMflxnfoTJ6MjDlv-102" value="" style="shape=tableRow;horizontal=0;startSize=0;swimlaneHead=0;swimlaneBody=0;top=0;left=0;bottom=0;right=0;collapsible=0;dropTarget=0;fillColor=none;points=[[0,0.5],[1,0.5]];portConstraint=eastwest;strokeColor=inherit;fontSize=16;rounded=0;shadow=0;glass=0;" parent="8KWskMflxnfoTJ6MjDlv-70" vertex="1">
          <mxGeometry y="210" width="190" height="30" as="geometry" />
        </mxCell>
        <mxCell id="8KWskMflxnfoTJ6MjDlv-103" value="other" style="shape=partialRectangle;html=1;whiteSpace=wrap;connectable=0;fillColor=none;top=0;left=0;bottom=0;right=0;overflow=hidden;strokeColor=inherit;fontSize=16;rounded=0;shadow=0;glass=0;" parent="8KWskMflxnfoTJ6MjDlv-102" vertex="1">
          <mxGeometry width="42" height="30" as="geometry">
            <mxRectangle width="42" height="30" as="alternateBounds" />
          </mxGeometry>
        </mxCell>
        <mxCell id="8KWskMflxnfoTJ6MjDlv-104" value="other" style="shape=partialRectangle;html=1;whiteSpace=wrap;connectable=0;fillColor=none;top=0;left=0;bottom=0;right=0;align=left;spacingLeft=6;overflow=hidden;strokeColor=inherit;fontSize=16;rounded=0;shadow=0;glass=0;" parent="8KWskMflxnfoTJ6MjDlv-102" vertex="1">
          <mxGeometry x="42" width="148" height="30" as="geometry">
            <mxRectangle width="148" height="30" as="alternateBounds" />
          </mxGeometry>
        </mxCell>
        <mxCell id="8KWskMflxnfoTJ6MjDlv-106" value="Charger la Configuration" style="html=1;whiteSpace=wrap;container=1;recursiveResize=0;collapsible=0;rounded=0;shadow=0;glass=0;strokeColor=default;fillColor=none;" parent="1" vertex="1">
          <mxGeometry x="3210" y="1724" width="200" height="52" as="geometry" />
        </mxCell>
        <mxCell id="8KWskMflxnfoTJ6MjDlv-107" value="Other" style="html=1;whiteSpace=wrap;container=1;recursiveResize=0;collapsible=0;rounded=0;shadow=0;glass=0;strokeColor=default;fillColor=none;" parent="1" vertex="1">
          <mxGeometry x="3000" y="1784" width="200" height="52" as="geometry" />
        </mxCell>
        <mxCell id="8KWskMflxnfoTJ6MjDlv-108" value="Actualiser les ports disponibles" style="html=1;whiteSpace=wrap;container=1;recursiveResize=0;collapsible=0;rounded=0;shadow=0;glass=0;strokeColor=default;fillColor=none;" parent="1" vertex="1">
          <mxGeometry x="3000" y="1724" width="200" height="52" as="geometry" />
        </mxCell>
        <mxCell id="8KWskMflxnfoTJ6MjDlv-112" value="Nom Base de donnée :&amp;nbsp; eolia" style="text;html=1;strokeColor=none;fillColor=none;align=left;verticalAlign=middle;whiteSpace=wrap;rounded=0;shadow=0;glass=0;" parent="1" vertex="1">
          <mxGeometry x="2460" y="1842" width="170" height="20" as="geometry" />
        </mxCell>
        <mxCell id="8KWskMflxnfoTJ6MjDlv-113" value="" style="html=1;whiteSpace=wrap;shape=isoCube2;backgroundOutline=1;isoAngle=15;rounded=0;shadow=0;glass=0;strokeColor=default;fontSize=20;fillColor=none;" parent="1" vertex="1">
          <mxGeometry x="698.5" y="1740" width="243" height="270" as="geometry" />
        </mxCell>
        <mxCell id="8KWskMflxnfoTJ6MjDlv-114" value="Régulateur&lt;br&gt;Disponible" style="text;html=1;strokeColor=none;fillColor=none;align=center;verticalAlign=middle;whiteSpace=wrap;rounded=0;fontSize=21;" parent="1" vertex="1">
          <mxGeometry x="850" y="1890" width="60" height="30" as="geometry" />
        </mxCell>
        <mxCell id="8KWskMflxnfoTJ6MjDlv-115" value="Capteurs&lt;br&gt;Disponible" style="text;html=1;strokeColor=none;fillColor=none;align=center;verticalAlign=middle;whiteSpace=wrap;rounded=0;fontSize=21;" parent="1" vertex="1">
          <mxGeometry x="790" y="1784" width="60" height="30" as="geometry" />
        </mxCell>
        <mxCell id="HuRnm2rSPpH4nqsMaASo-34" value="Caméra&lt;br&gt;Disponible" style="text;html=1;strokeColor=none;fillColor=none;align=center;verticalAlign=middle;whiteSpace=wrap;rounded=0;fontSize=21;" parent="1" vertex="1">
          <mxGeometry x="730" y="1882" width="60" height="30" as="geometry" />
        </mxCell>
        <mxCell id="UtrofRp7_irQ9of2Ki7m-38" style="edgeStyle=orthogonalEdgeStyle;rounded=0;orthogonalLoop=1;jettySize=auto;html=1;exitX=1;exitY=0.5;exitDx=0;exitDy=0;entryX=0;entryY=0.5;entryDx=0;entryDy=0;" edge="1" parent="1" source="UtrofRp7_irQ9of2Ki7m-1" target="UtrofRp7_irQ9of2Ki7m-6">
          <mxGeometry relative="1" as="geometry" />
        </mxCell>
        <mxCell id="UtrofRp7_irQ9of2Ki7m-39" style="edgeStyle=orthogonalEdgeStyle;rounded=0;orthogonalLoop=1;jettySize=auto;html=1;exitX=1;exitY=0.5;exitDx=0;exitDy=0;entryX=0;entryY=0.5;entryDx=0;entryDy=0;" edge="1" parent="1" source="UtrofRp7_irQ9of2Ki7m-1" target="UtrofRp7_irQ9of2Ki7m-7">
          <mxGeometry relative="1" as="geometry" />
        </mxCell>
        <mxCell id="UtrofRp7_irQ9of2Ki7m-1" value="Capture" style="rounded=0;whiteSpace=wrap;html=1;" vertex="1" parent="1">
          <mxGeometry x="3280" y="240" width="120" height="60" as="geometry" />
        </mxCell>
        <mxCell id="UtrofRp7_irQ9of2Ki7m-6" value="Start" style="rounded=0;whiteSpace=wrap;html=1;" vertex="1" parent="1">
          <mxGeometry x="3450" y="190" width="120" height="60" as="geometry" />
        </mxCell>
        <mxCell id="UtrofRp7_irQ9of2Ki7m-7" value="Stop" style="rounded=0;whiteSpace=wrap;html=1;" vertex="1" parent="1">
          <mxGeometry x="3450" y="290" width="120" height="60" as="geometry" />
        </mxCell>
        <mxCell id="UtrofRp7_irQ9of2Ki7m-19" style="edgeStyle=orthogonalEdgeStyle;rounded=0;orthogonalLoop=1;jettySize=auto;html=1;exitX=1;exitY=0.5;exitDx=0;exitDy=0;entryX=0;entryY=0.5;entryDx=0;entryDy=0;" edge="1" parent="1" source="UtrofRp7_irQ9of2Ki7m-8" target="UtrofRp7_irQ9of2Ki7m-1">
          <mxGeometry relative="1" as="geometry" />
        </mxCell>
        <mxCell id="UtrofRp7_irQ9of2Ki7m-20" style="edgeStyle=orthogonalEdgeStyle;rounded=0;orthogonalLoop=1;jettySize=auto;html=1;exitX=1;exitY=0.5;exitDx=0;exitDy=0;entryX=0;entryY=0.5;entryDx=0;entryDy=0;" edge="1" parent="1" source="UtrofRp7_irQ9of2Ki7m-8" target="UtrofRp7_irQ9of2Ki7m-12">
          <mxGeometry relative="1" as="geometry" />
        </mxCell>
        <mxCell id="UtrofRp7_irQ9of2Ki7m-8" value="Image" style="rounded=0;whiteSpace=wrap;html=1;" vertex="1" parent="1">
          <mxGeometry x="3040" y="370" width="120" height="60" as="geometry" />
        </mxCell>
        <mxCell id="UtrofRp7_irQ9of2Ki7m-40" style="edgeStyle=orthogonalEdgeStyle;rounded=0;orthogonalLoop=1;jettySize=auto;html=1;exitX=1;exitY=0.5;exitDx=0;exitDy=0;entryX=0;entryY=0.5;entryDx=0;entryDy=0;" edge="1" parent="1" source="UtrofRp7_irQ9of2Ki7m-12" target="UtrofRp7_irQ9of2Ki7m-14">
          <mxGeometry relative="1" as="geometry" />
        </mxCell>
        <mxCell id="UtrofRp7_irQ9of2Ki7m-41" style="edgeStyle=orthogonalEdgeStyle;rounded=0;orthogonalLoop=1;jettySize=auto;html=1;exitX=1;exitY=0.5;exitDx=0;exitDy=0;entryX=0;entryY=0.5;entryDx=0;entryDy=0;" edge="1" parent="1" source="UtrofRp7_irQ9of2Ki7m-12" target="UtrofRp7_irQ9of2Ki7m-15">
          <mxGeometry relative="1" as="geometry" />
        </mxCell>
        <mxCell id="UtrofRp7_irQ9of2Ki7m-12" value="Save" style="rounded=0;whiteSpace=wrap;html=1;" vertex="1" parent="1">
          <mxGeometry x="3280" y="520" width="120" height="60" as="geometry" />
        </mxCell>
        <mxCell id="UtrofRp7_irQ9of2Ki7m-14" value="Start" style="rounded=0;whiteSpace=wrap;html=1;" vertex="1" parent="1">
          <mxGeometry x="3450" y="470" width="120" height="60" as="geometry" />
        </mxCell>
        <mxCell id="UtrofRp7_irQ9of2Ki7m-15" value="Stop" style="rounded=0;whiteSpace=wrap;html=1;" vertex="1" parent="1">
          <mxGeometry x="3450" y="570" width="120" height="60" as="geometry" />
        </mxCell>
        <mxCell id="UtrofRp7_irQ9of2Ki7m-42" style="edgeStyle=orthogonalEdgeStyle;rounded=0;orthogonalLoop=1;jettySize=auto;html=1;exitX=1;exitY=0.5;exitDx=0;exitDy=0;entryX=0;entryY=0.5;entryDx=0;entryDy=0;" edge="1" parent="1" source="UtrofRp7_irQ9of2Ki7m-21" target="UtrofRp7_irQ9of2Ki7m-23">
          <mxGeometry relative="1" as="geometry" />
        </mxCell>
        <mxCell id="UtrofRp7_irQ9of2Ki7m-43" style="edgeStyle=orthogonalEdgeStyle;rounded=0;orthogonalLoop=1;jettySize=auto;html=1;exitX=1;exitY=0.5;exitDx=0;exitDy=0;entryX=0;entryY=0.5;entryDx=0;entryDy=0;" edge="1" parent="1" source="UtrofRp7_irQ9of2Ki7m-21" target="UtrofRp7_irQ9of2Ki7m-24">
          <mxGeometry relative="1" as="geometry" />
        </mxCell>
        <mxCell id="UtrofRp7_irQ9of2Ki7m-21" value="Capture" style="rounded=0;whiteSpace=wrap;html=1;" vertex="1" parent="1">
          <mxGeometry x="3280" y="860" width="120" height="60" as="geometry" />
        </mxCell>
        <mxCell id="UtrofRp7_irQ9of2Ki7m-23" value="Start" style="rounded=0;whiteSpace=wrap;html=1;" vertex="1" parent="1">
          <mxGeometry x="3450" y="810" width="120" height="60" as="geometry" />
        </mxCell>
        <mxCell id="UtrofRp7_irQ9of2Ki7m-24" value="Stop" style="rounded=0;whiteSpace=wrap;html=1;" vertex="1" parent="1">
          <mxGeometry x="3450" y="910" width="120" height="60" as="geometry" />
        </mxCell>
        <mxCell id="UtrofRp7_irQ9of2Ki7m-25" style="edgeStyle=orthogonalEdgeStyle;rounded=0;orthogonalLoop=1;jettySize=auto;html=1;exitX=1;exitY=0.5;exitDx=0;exitDy=0;entryX=0;entryY=0.5;entryDx=0;entryDy=0;" edge="1" parent="1" source="UtrofRp7_irQ9of2Ki7m-27" target="UtrofRp7_irQ9of2Ki7m-21">
          <mxGeometry relative="1" as="geometry" />
        </mxCell>
        <mxCell id="UtrofRp7_irQ9of2Ki7m-26" style="edgeStyle=orthogonalEdgeStyle;rounded=0;orthogonalLoop=1;jettySize=auto;html=1;exitX=1;exitY=0.5;exitDx=0;exitDy=0;entryX=0;entryY=0.5;entryDx=0;entryDy=0;" edge="1" parent="1" source="UtrofRp7_irQ9of2Ki7m-27" target="UtrofRp7_irQ9of2Ki7m-28">
          <mxGeometry relative="1" as="geometry" />
        </mxCell>
        <mxCell id="UtrofRp7_irQ9of2Ki7m-27" value="Video" style="rounded=0;whiteSpace=wrap;html=1;" vertex="1" parent="1">
          <mxGeometry x="3040" y="990" width="120" height="60" as="geometry" />
        </mxCell>
        <mxCell id="UtrofRp7_irQ9of2Ki7m-44" style="edgeStyle=orthogonalEdgeStyle;rounded=0;orthogonalLoop=1;jettySize=auto;html=1;exitX=1;exitY=0.5;exitDx=0;exitDy=0;" edge="1" parent="1" source="UtrofRp7_irQ9of2Ki7m-28" target="UtrofRp7_irQ9of2Ki7m-30">
          <mxGeometry relative="1" as="geometry" />
        </mxCell>
        <mxCell id="UtrofRp7_irQ9of2Ki7m-45" style="edgeStyle=orthogonalEdgeStyle;rounded=0;orthogonalLoop=1;jettySize=auto;html=1;exitX=1;exitY=0.5;exitDx=0;exitDy=0;entryX=0;entryY=0.5;entryDx=0;entryDy=0;" edge="1" parent="1" source="UtrofRp7_irQ9of2Ki7m-28" target="UtrofRp7_irQ9of2Ki7m-31">
          <mxGeometry relative="1" as="geometry" />
        </mxCell>
        <mxCell id="UtrofRp7_irQ9of2Ki7m-28" value="Save" style="rounded=0;whiteSpace=wrap;html=1;" vertex="1" parent="1">
          <mxGeometry x="3280" y="1140" width="120" height="60" as="geometry" />
        </mxCell>
        <mxCell id="UtrofRp7_irQ9of2Ki7m-30" value="Start" style="rounded=0;whiteSpace=wrap;html=1;" vertex="1" parent="1">
          <mxGeometry x="3450" y="1090" width="120" height="60" as="geometry" />
        </mxCell>
        <mxCell id="UtrofRp7_irQ9of2Ki7m-31" value="Stop" style="rounded=0;whiteSpace=wrap;html=1;" vertex="1" parent="1">
          <mxGeometry x="3450" y="1190" width="120" height="60" as="geometry" />
        </mxCell>
        <mxCell id="UtrofRp7_irQ9of2Ki7m-36" style="edgeStyle=orthogonalEdgeStyle;rounded=0;orthogonalLoop=1;jettySize=auto;html=1;exitX=1;exitY=0.5;exitDx=0;exitDy=0;entryX=0;entryY=0.5;entryDx=0;entryDy=0;" edge="1" parent="1" source="UtrofRp7_irQ9of2Ki7m-35" target="UtrofRp7_irQ9of2Ki7m-8">
          <mxGeometry relative="1" as="geometry" />
        </mxCell>
        <mxCell id="UtrofRp7_irQ9of2Ki7m-37" style="edgeStyle=orthogonalEdgeStyle;rounded=0;orthogonalLoop=1;jettySize=auto;html=1;exitX=1;exitY=0.5;exitDx=0;exitDy=0;entryX=0;entryY=0.5;entryDx=0;entryDy=0;" edge="1" parent="1" source="UtrofRp7_irQ9of2Ki7m-35" target="UtrofRp7_irQ9of2Ki7m-27">
          <mxGeometry relative="1" as="geometry" />
        </mxCell>
        <mxCell id="UtrofRp7_irQ9of2Ki7m-35" value="Class: Camera" style="rounded=0;whiteSpace=wrap;html=1;" vertex="1" parent="1">
          <mxGeometry x="2835" y="690" width="120" height="60" as="geometry" />
        </mxCell>
        <mxCell id="UtrofRp7_irQ9of2Ki7m-98" style="edgeStyle=orthogonalEdgeStyle;rounded=0;orthogonalLoop=1;jettySize=auto;html=1;exitX=1;exitY=0.5;exitDx=0;exitDy=0;entryX=0;entryY=0.5;entryDx=0;entryDy=0;" edge="1" parent="1" source="UtrofRp7_irQ9of2Ki7m-55" target="UtrofRp7_irQ9of2Ki7m-92">
          <mxGeometry relative="1" as="geometry" />
        </mxCell>
        <mxCell id="UtrofRp7_irQ9of2Ki7m-55" value="Capture" style="rounded=0;whiteSpace=wrap;html=1;" vertex="1" parent="1">
          <mxGeometry x="4415" y="252" width="120" height="60" as="geometry" />
        </mxCell>
        <mxCell id="UtrofRp7_irQ9of2Ki7m-56" value="Start" style="rounded=0;whiteSpace=wrap;html=1;" vertex="1" parent="1">
          <mxGeometry x="4730" y="202" width="120" height="60" as="geometry" />
        </mxCell>
        <mxCell id="UtrofRp7_irQ9of2Ki7m-57" value="Stop" style="rounded=0;whiteSpace=wrap;html=1;" vertex="1" parent="1">
          <mxGeometry x="4730" y="302" width="120" height="60" as="geometry" />
        </mxCell>
        <mxCell id="UtrofRp7_irQ9of2Ki7m-85" style="edgeStyle=orthogonalEdgeStyle;rounded=0;orthogonalLoop=1;jettySize=auto;html=1;exitX=1;exitY=0.5;exitDx=0;exitDy=0;entryX=0;entryY=0.5;entryDx=0;entryDy=0;" edge="1" parent="1" source="UtrofRp7_irQ9of2Ki7m-60" target="UtrofRp7_irQ9of2Ki7m-84">
          <mxGeometry relative="1" as="geometry" />
        </mxCell>
        <mxCell id="UtrofRp7_irQ9of2Ki7m-60" value="Image" style="rounded=0;whiteSpace=wrap;html=1;" vertex="1" parent="1">
          <mxGeometry x="4115" y="380" width="120" height="60" as="geometry" />
        </mxCell>
        <mxCell id="UtrofRp7_irQ9of2Ki7m-99" style="edgeStyle=orthogonalEdgeStyle;rounded=0;orthogonalLoop=1;jettySize=auto;html=1;exitX=1;exitY=0.5;exitDx=0;exitDy=0;entryX=0;entryY=0.5;entryDx=0;entryDy=0;" edge="1" parent="1" source="UtrofRp7_irQ9of2Ki7m-63" target="UtrofRp7_irQ9of2Ki7m-93">
          <mxGeometry relative="1" as="geometry" />
        </mxCell>
        <mxCell id="UtrofRp7_irQ9of2Ki7m-63" value="Save" style="rounded=0;whiteSpace=wrap;html=1;" vertex="1" parent="1">
          <mxGeometry x="4415" y="532" width="115" height="60" as="geometry" />
        </mxCell>
        <mxCell id="UtrofRp7_irQ9of2Ki7m-64" value="Start" style="rounded=0;whiteSpace=wrap;html=1;" vertex="1" parent="1">
          <mxGeometry x="4730" y="482" width="120" height="60" as="geometry" />
        </mxCell>
        <mxCell id="UtrofRp7_irQ9of2Ki7m-65" value="Stop" style="rounded=0;whiteSpace=wrap;html=1;" vertex="1" parent="1">
          <mxGeometry x="4730" y="582" width="120" height="60" as="geometry" />
        </mxCell>
        <mxCell id="UtrofRp7_irQ9of2Ki7m-104" style="edgeStyle=orthogonalEdgeStyle;rounded=0;orthogonalLoop=1;jettySize=auto;html=1;exitX=1;exitY=0.5;exitDx=0;exitDy=0;strokeColor=default;" edge="1" parent="1" source="UtrofRp7_irQ9of2Ki7m-68" target="UtrofRp7_irQ9of2Ki7m-96">
          <mxGeometry relative="1" as="geometry" />
        </mxCell>
        <mxCell id="UtrofRp7_irQ9of2Ki7m-68" value="Capture" style="rounded=0;whiteSpace=wrap;html=1;strokeColor=default;" vertex="1" parent="1">
          <mxGeometry x="4415" y="872" width="120" height="60" as="geometry" />
        </mxCell>
        <mxCell id="UtrofRp7_irQ9of2Ki7m-69" value="Start" style="rounded=0;whiteSpace=wrap;html=1;" vertex="1" parent="1">
          <mxGeometry x="4730" y="822" width="120" height="60" as="geometry" />
        </mxCell>
        <mxCell id="UtrofRp7_irQ9of2Ki7m-70" value="Stop" style="rounded=0;whiteSpace=wrap;html=1;" vertex="1" parent="1">
          <mxGeometry x="4730" y="922" width="120" height="60" as="geometry" />
        </mxCell>
        <mxCell id="UtrofRp7_irQ9of2Ki7m-87" style="edgeStyle=orthogonalEdgeStyle;rounded=0;orthogonalLoop=1;jettySize=auto;html=1;exitX=1;exitY=0.5;exitDx=0;exitDy=0;" edge="1" parent="1" source="UtrofRp7_irQ9of2Ki7m-73" target="UtrofRp7_irQ9of2Ki7m-86">
          <mxGeometry relative="1" as="geometry" />
        </mxCell>
        <mxCell id="UtrofRp7_irQ9of2Ki7m-73" value="Video" style="rounded=0;whiteSpace=wrap;html=1;" vertex="1" parent="1">
          <mxGeometry x="4115" y="1000" width="120" height="60" as="geometry" />
        </mxCell>
        <mxCell id="UtrofRp7_irQ9of2Ki7m-107" style="edgeStyle=orthogonalEdgeStyle;rounded=0;orthogonalLoop=1;jettySize=auto;html=1;exitX=1;exitY=0.5;exitDx=0;exitDy=0;entryX=0;entryY=0.5;entryDx=0;entryDy=0;" edge="1" parent="1" source="UtrofRp7_irQ9of2Ki7m-76" target="UtrofRp7_irQ9of2Ki7m-97">
          <mxGeometry relative="1" as="geometry" />
        </mxCell>
        <mxCell id="UtrofRp7_irQ9of2Ki7m-76" value="Save" style="rounded=0;whiteSpace=wrap;html=1;" vertex="1" parent="1">
          <mxGeometry x="4415" y="1152" width="120" height="60" as="geometry" />
        </mxCell>
        <mxCell id="UtrofRp7_irQ9of2Ki7m-77" value="Start" style="rounded=0;whiteSpace=wrap;html=1;" vertex="1" parent="1">
          <mxGeometry x="4730" y="1102" width="120" height="60" as="geometry" />
        </mxCell>
        <mxCell id="UtrofRp7_irQ9of2Ki7m-78" value="Stop" style="rounded=0;whiteSpace=wrap;html=1;" vertex="1" parent="1">
          <mxGeometry x="4730" y="1202" width="120" height="60" as="geometry" />
        </mxCell>
        <mxCell id="UtrofRp7_irQ9of2Ki7m-79" style="edgeStyle=orthogonalEdgeStyle;rounded=0;orthogonalLoop=1;jettySize=auto;html=1;exitX=1;exitY=0.5;exitDx=0;exitDy=0;entryX=0;entryY=0.5;entryDx=0;entryDy=0;" edge="1" parent="1" source="UtrofRp7_irQ9of2Ki7m-81" target="UtrofRp7_irQ9of2Ki7m-60">
          <mxGeometry relative="1" as="geometry" />
        </mxCell>
        <mxCell id="UtrofRp7_irQ9of2Ki7m-80" style="edgeStyle=orthogonalEdgeStyle;rounded=0;orthogonalLoop=1;jettySize=auto;html=1;exitX=1;exitY=0.5;exitDx=0;exitDy=0;entryX=0;entryY=0.5;entryDx=0;entryDy=0;" edge="1" parent="1" source="UtrofRp7_irQ9of2Ki7m-81" target="UtrofRp7_irQ9of2Ki7m-73">
          <mxGeometry relative="1" as="geometry" />
        </mxCell>
        <mxCell id="UtrofRp7_irQ9of2Ki7m-81" value="Choose Format" style="rounded=0;whiteSpace=wrap;html=1;" vertex="1" parent="1">
          <mxGeometry x="3910" y="700" width="120" height="60" as="geometry" />
        </mxCell>
        <mxCell id="UtrofRp7_irQ9of2Ki7m-83" style="edgeStyle=orthogonalEdgeStyle;rounded=0;orthogonalLoop=1;jettySize=auto;html=1;exitX=1;exitY=0.5;exitDx=0;exitDy=0;entryX=0;entryY=0.5;entryDx=0;entryDy=0;" edge="1" parent="1" source="UtrofRp7_irQ9of2Ki7m-82" target="UtrofRp7_irQ9of2Ki7m-81">
          <mxGeometry relative="1" as="geometry" />
        </mxCell>
        <mxCell id="UtrofRp7_irQ9of2Ki7m-82" value="StartStream ?" style="rounded=0;whiteSpace=wrap;html=1;" vertex="1" parent="1">
          <mxGeometry x="3750" y="700" width="120" height="60" as="geometry" />
        </mxCell>
        <mxCell id="UtrofRp7_irQ9of2Ki7m-88" style="edgeStyle=orthogonalEdgeStyle;rounded=0;orthogonalLoop=1;jettySize=auto;html=1;exitX=1;exitY=0.5;exitDx=0;exitDy=0;entryX=0;entryY=0.5;entryDx=0;entryDy=0;" edge="1" parent="1" source="UtrofRp7_irQ9of2Ki7m-84" target="UtrofRp7_irQ9of2Ki7m-55">
          <mxGeometry relative="1" as="geometry" />
        </mxCell>
        <mxCell id="UtrofRp7_irQ9of2Ki7m-89" style="edgeStyle=orthogonalEdgeStyle;rounded=0;orthogonalLoop=1;jettySize=auto;html=1;exitX=1;exitY=0.5;exitDx=0;exitDy=0;entryX=0;entryY=0.5;entryDx=0;entryDy=0;" edge="1" parent="1" source="UtrofRp7_irQ9of2Ki7m-84" target="UtrofRp7_irQ9of2Ki7m-63">
          <mxGeometry relative="1" as="geometry" />
        </mxCell>
        <mxCell id="UtrofRp7_irQ9of2Ki7m-84" value="Choose Type" style="rounded=0;whiteSpace=wrap;html=1;" vertex="1" parent="1">
          <mxGeometry x="4250" y="380" width="120" height="60" as="geometry" />
        </mxCell>
        <mxCell id="UtrofRp7_irQ9of2Ki7m-90" style="edgeStyle=orthogonalEdgeStyle;rounded=0;orthogonalLoop=1;jettySize=auto;html=1;exitX=1;exitY=0.5;exitDx=0;exitDy=0;entryX=0;entryY=0.5;entryDx=0;entryDy=0;" edge="1" parent="1" source="UtrofRp7_irQ9of2Ki7m-86" target="UtrofRp7_irQ9of2Ki7m-68">
          <mxGeometry relative="1" as="geometry" />
        </mxCell>
        <mxCell id="UtrofRp7_irQ9of2Ki7m-91" style="edgeStyle=orthogonalEdgeStyle;rounded=0;orthogonalLoop=1;jettySize=auto;html=1;exitX=1;exitY=0.5;exitDx=0;exitDy=0;entryX=0;entryY=0.5;entryDx=0;entryDy=0;" edge="1" parent="1" source="UtrofRp7_irQ9of2Ki7m-86" target="UtrofRp7_irQ9of2Ki7m-76">
          <mxGeometry relative="1" as="geometry" />
        </mxCell>
        <mxCell id="UtrofRp7_irQ9of2Ki7m-86" value="Choose Type" style="rounded=0;whiteSpace=wrap;html=1;" vertex="1" parent="1">
          <mxGeometry x="4250" y="1000" width="120" height="60" as="geometry" />
        </mxCell>
        <mxCell id="UtrofRp7_irQ9of2Ki7m-100" style="edgeStyle=orthogonalEdgeStyle;rounded=0;orthogonalLoop=1;jettySize=auto;html=1;exitX=1;exitY=0.5;exitDx=0;exitDy=0;entryX=0;entryY=0.5;entryDx=0;entryDy=0;" edge="1" parent="1" source="UtrofRp7_irQ9of2Ki7m-92" target="UtrofRp7_irQ9of2Ki7m-56">
          <mxGeometry relative="1" as="geometry" />
        </mxCell>
        <mxCell id="UtrofRp7_irQ9of2Ki7m-101" style="edgeStyle=orthogonalEdgeStyle;rounded=0;orthogonalLoop=1;jettySize=auto;html=1;exitX=1;exitY=0.5;exitDx=0;exitDy=0;entryX=0;entryY=0.5;entryDx=0;entryDy=0;" edge="1" parent="1" source="UtrofRp7_irQ9of2Ki7m-92" target="UtrofRp7_irQ9of2Ki7m-57">
          <mxGeometry relative="1" as="geometry" />
        </mxCell>
        <mxCell id="UtrofRp7_irQ9of2Ki7m-92" value="IsStart ?" style="rounded=0;whiteSpace=wrap;html=1;" vertex="1" parent="1">
          <mxGeometry x="4550" y="252" width="120" height="60" as="geometry" />
        </mxCell>
        <mxCell id="UtrofRp7_irQ9of2Ki7m-102" style="edgeStyle=orthogonalEdgeStyle;rounded=0;orthogonalLoop=1;jettySize=auto;html=1;exitX=1;exitY=0.5;exitDx=0;exitDy=0;entryX=0;entryY=0.5;entryDx=0;entryDy=0;" edge="1" parent="1" source="UtrofRp7_irQ9of2Ki7m-93" target="UtrofRp7_irQ9of2Ki7m-64">
          <mxGeometry relative="1" as="geometry" />
        </mxCell>
        <mxCell id="UtrofRp7_irQ9of2Ki7m-103" style="edgeStyle=orthogonalEdgeStyle;rounded=0;orthogonalLoop=1;jettySize=auto;html=1;exitX=1;exitY=0.5;exitDx=0;exitDy=0;" edge="1" parent="1" source="UtrofRp7_irQ9of2Ki7m-93" target="UtrofRp7_irQ9of2Ki7m-65">
          <mxGeometry relative="1" as="geometry" />
        </mxCell>
        <mxCell id="UtrofRp7_irQ9of2Ki7m-93" value="IsStart ?" style="rounded=0;whiteSpace=wrap;html=1;" vertex="1" parent="1">
          <mxGeometry x="4550" y="532" width="120" height="60" as="geometry" />
        </mxCell>
        <mxCell id="UtrofRp7_irQ9of2Ki7m-105" style="edgeStyle=orthogonalEdgeStyle;rounded=0;orthogonalLoop=1;jettySize=auto;html=1;exitX=1;exitY=0.5;exitDx=0;exitDy=0;strokeColor=default;" edge="1" parent="1" source="UtrofRp7_irQ9of2Ki7m-96" target="UtrofRp7_irQ9of2Ki7m-69">
          <mxGeometry relative="1" as="geometry" />
        </mxCell>
        <mxCell id="UtrofRp7_irQ9of2Ki7m-106" style="edgeStyle=orthogonalEdgeStyle;rounded=0;orthogonalLoop=1;jettySize=auto;html=1;exitX=1;exitY=0.5;exitDx=0;exitDy=0;strokeColor=default;" edge="1" parent="1" source="UtrofRp7_irQ9of2Ki7m-96" target="UtrofRp7_irQ9of2Ki7m-70">
          <mxGeometry relative="1" as="geometry" />
        </mxCell>
        <mxCell id="UtrofRp7_irQ9of2Ki7m-96" value="IsStart ?" style="rounded=0;whiteSpace=wrap;html=1;strokeColor=default;" vertex="1" parent="1">
          <mxGeometry x="4550" y="872" width="120" height="60" as="geometry" />
        </mxCell>
        <mxCell id="UtrofRp7_irQ9of2Ki7m-108" style="edgeStyle=orthogonalEdgeStyle;rounded=0;orthogonalLoop=1;jettySize=auto;html=1;exitX=1;exitY=0.5;exitDx=0;exitDy=0;" edge="1" parent="1" source="UtrofRp7_irQ9of2Ki7m-97" target="UtrofRp7_irQ9of2Ki7m-77">
          <mxGeometry relative="1" as="geometry" />
        </mxCell>
        <mxCell id="UtrofRp7_irQ9of2Ki7m-109" style="edgeStyle=orthogonalEdgeStyle;rounded=0;orthogonalLoop=1;jettySize=auto;html=1;exitX=1;exitY=0.5;exitDx=0;exitDy=0;entryX=0;entryY=0.5;entryDx=0;entryDy=0;" edge="1" parent="1" source="UtrofRp7_irQ9of2Ki7m-97" target="UtrofRp7_irQ9of2Ki7m-78">
          <mxGeometry relative="1" as="geometry" />
        </mxCell>
        <mxCell id="UtrofRp7_irQ9of2Ki7m-97" value="IsStart ?" style="rounded=0;whiteSpace=wrap;html=1;" vertex="1" parent="1">
          <mxGeometry x="4548" y="1152" width="120" height="60" as="geometry" />
        </mxCell>
        <mxCell id="UtrofRp7_irQ9of2Ki7m-110" value="" style="endArrow=none;html=1;rounded=0;strokeColor=default;" edge="1" parent="1">
          <mxGeometry width="50" height="50" relative="1" as="geometry">
            <mxPoint x="4350" y="850" as="sourcePoint" />
            <mxPoint x="4890" y="1000" as="targetPoint" />
          </mxGeometry>
        </mxCell>
        <mxCell id="UtrofRp7_irQ9of2Ki7m-111" value="" style="endArrow=none;html=1;rounded=0;strokeColor=default;" edge="1" parent="1">
          <mxGeometry width="50" height="50" relative="1" as="geometry">
            <mxPoint x="4370" y="960" as="sourcePoint" />
            <mxPoint x="4910" y="810" as="targetPoint" />
          </mxGeometry>
        </mxCell>
      </root>
    </mxGraphModel>
  </diagram>
</mxfile>
